<?xml version="1.0" encoding="UTF-8"?>
<svg width="442px" height="371px" viewBox="0 0 442 371" version="1.1" xmlns="http://www.w3.org/2000/svg" xmlns:xlink="http://www.w3.org/1999/xlink">
    <title>undraw_online_collaboration_7pfp</title>
    <g id="Page-1" stroke="none" stroke-width="1" fill="none" fill-rule="evenodd">
        <g id="Desktop-HD" transform="translate(-466.000000, -309.000000)">
            <g id="undraw_online_collaboration_7pfp" transform="translate(466.000000, 309.000000)">
                <rect id="Rectangle" fill="#E6E6E6" fill-rule="nonzero" x="7" y="0" width="405" height="259"></rect>
                <rect id="Rectangle" fill="#FFFFFF" fill-rule="nonzero" x="18" y="33" width="383" height="212"></rect>
                <rect id="Rectangle" fill="#0052CC" fill-rule="nonzero" x="7" y="0" width="405" height="17"></rect>
                <circle id="Oval" fill="#FFFFFF" fill-rule="nonzero" cx="20.5" cy="9.5" r="3.5"></circle>
                <circle id="Oval" fill="#FFFFFF" fill-rule="nonzero" cx="30.5" cy="9.5" r="3.5"></circle>
                <circle id="Oval" fill="#FFFFFF" fill-rule="nonzero" cx="43.5" cy="9.5" r="3.5"></circle>
                <polygon id="Path" fill="#A0616A" fill-rule="nonzero" points="435.083428 332 438 344.307877 425.166856 348 424 335.077268"></polygon>
                <polygon id="Path" fill="#A0616A" fill-rule="nonzero" points="386 349.370135 386 360.629288 372.461216 363 370 357.073796 374.923031 347"></polygon>
                <path d="M413.539062,226 L411.734389,242.250001 L412.937504,273.546308 C412.937504,273.546308 412.937504,276.555549 414.742183,277.759267 C415.7102,278.416969 437,337.944458 437,337.944458 C437,337.944458 432.187504,343.962988 423.164077,342.157417 L421.359398,336.13887 C421.359398,336.13887 418.953139,328.314799 417.750023,326.509252 C416.546908,324.703704 398.500023,287.990721 398.500023,287.990721 L390.078159,272.944414 L387.671882,293.407391 C387.671882,293.407391 392.484378,319.287034 391.281257,331.324075 C390.078136,343.361117 387.671882,356 387.671882,356 L373.234378,353.592582 C373.168948,351.650432 372.542082,349.768922 371.429699,348.175923 C369.62502,345.768505 370.226584,337.342582 370.226584,337.342582 L370.226584,335.537034 L366.61718,289.19445 L360,228.407412 L413.539062,226 Z" id="Path" fill="#2F2E41" fill-rule="nonzero"></path>
                <ellipse id="Oval" fill="#A0616A" fill-rule="nonzero" cx="374.5" cy="101" rx="16.5" ry="16"></ellipse>
                <polygon id="Path" fill="#A0616A" fill-rule="nonzero" points="387.714524 101 394 118.021446 379.143016 130 370 112.347426"></polygon>
                <path d="M386.362174,112.958839 L392.235477,110 L395.759453,118.284742 C395.759453,118.284742 418.665301,125.385957 416.903321,157.933196 C415.141342,190.480435 411.029978,202.907565 411.029978,202.907565 C411.029978,202.907565 421.014588,224.211206 415.141279,226.578276 C409.26797,228.945346 359.34498,237.821856 358.170325,229.537109 C356.99567,221.252361 362.281625,172.72739 362.281625,172.72739 C362.281625,172.72739 360.519646,137.813082 375.202864,130.711872 L372.266275,124.202448 L386.362174,112.958839 Z" id="Path" fill="#172B4D" fill-rule="nonzero"></path>
                <path d="M354.954652,230 C354.954652,230 340.223481,244.058304 348.549804,247.572881 C356.876126,251.087459 362,231.757286 362,231.757286 L354.954652,230 Z" id="Path" fill="#A0616A" fill-rule="nonzero"></path>
                <path d="M383.891834,357.536594 L390.440415,355.19512 C390.440415,355.19512 397.584311,371 391.631055,371 L376.152636,371 C376.152636,371 367.222776,368.073165 362.460183,368.073165 C357.697589,368.073165 348.767706,359.292678 355.316287,355.19512 C361.864869,351.097563 370.199404,352.268286 370.199404,352.268286 L372.580712,347 L375.55734,355.195115 C375.55734,355.195115 379.129241,361.04879 383.891834,357.536594 Z" id="Path" fill="#2F2E41" fill-rule="nonzero"></path>
                <path d="M432.15026,344.378336 C432.15026,344.378336 435.722291,342.153473 437.644001,342.98439 C439.565712,343.815308 440.706532,352.824243 440.706532,352.824243 C440.706532,352.824243 446.410719,359.580963 433.861525,360.707068 C421.312332,361.833172 418.460263,359.580958 417.319433,356.2026 C416.178602,352.824243 418.460263,349.44588 418.460263,349.44588 L421.882767,348.31977 C421.882767,348.31977 425.875682,345.504462 424.734857,344.378357 C423.594032,343.252253 424.734857,341 424.734857,341 C424.734857,341 428.727756,348.882808 432.15026,344.378336 Z" id="Path" fill="#2F2E41" fill-rule="nonzero"></path>
                <path d="M377.759495,99.9866229 C377.693217,99.4654217 377.574562,98.9520534 377.40529,98.4541339 C376.530031,96.6381829 373.115039,97.1682169 372.506524,95.2486407 C372.387441,94.8729565 372.412327,94.4642935 372.295655,94.0878782 C371.998093,93.1280523 370.856589,92.6519985 369.842496,92.6980457 C368.836612,92.8354089 367.850025,93.0866449 366.902153,93.4468085 C364.516223,94.1164524 361.977833,93.8608335 359.511782,93.5997771 C358.412153,93.5632057 357.334432,93.2857639 356.35634,92.7874593 C355.422408,92.219305 354.749534,91.0755571 355.089533,90.0446438 C355.415501,89.0562263 356.509234,88.5130949 357.001007,87.5941923 C357.781897,86.1350713 356.827316,84.250563 357.460834,82.7231691 C358.477058,80.2729845 362.322878,80.7649677 364.276736,78.9539552 C364.751005,78.5143677 365.092511,77.952417 365.547058,77.4929366 C366.895722,76.1297054 369.025617,75.8658055 370.94469,76.0538769 C372.863763,76.2419482 374.749606,76.7992507 376.677785,76.7655291 C378.506387,76.7335484 380.423212,76.1828498 382.108102,76.8862327 C383.099105,77.3876953 383.969151,78.0945369 384.658956,78.9585918 L388.980624,83.6460062 C389.574045,84.1993782 390.031042,84.8801299 390.316378,85.6357762 C390.57638,86.5339039 390.337057,87.4981807 390.447996,88.4259272 C390.700968,90.5417918 392.703981,92.139954 392.97424,94.2537354 C393.02873,94.9092926 392.996688,95.569076 392.878921,96.2164515 L392.273587,100.630571 C392.243146,101.061029 392.127246,101.481338 391.932508,101.867487 C391.756471,102.164934 391.490279,102.399854 391.292101,102.683368 C390.732525,103.483836 390.783594,104.541925 390.505519,105.475387 C390.227462,106.408746 389.230274,107.332505 388.358002,106.882629 C387.788938,106.589134 387.412429,104.161975 386.721118,103.531821 C385.758193,102.654091 385.255183,102.762272 384.066648,102.777128 C381.686293,102.806903 378.521139,103.008757 377.759495,99.9866229 Z" id="Path" fill="#2F2E41" fill-rule="nonzero"></path>
                <path d="M382.392778,133.023058 C382.392778,133.023058 400.388331,140.278888 394.989663,156.604508 C389.590995,172.930129 375.194538,223.116261 375.194538,223.116261 L366.796615,227.348824 L364.397196,234 L353,229.767437 L354.799542,220.697647 L358.998504,211.627869 L369.795852,143.906797 C369.795852,143.906797 369.795858,132.418393 382.392778,133.023058 Z" id="Path" fill="#172B4D" fill-rule="nonzero"></path>
                <polygon id="Path" fill="#000000" fill-rule="nonzero" opacity="0.1" points="394 163 376.386238 226.243263 369 234 373.261376 225.944905"></polygon>
                <path d="M29.4165238,171 L32.9679752,196.445782 L47.9629265,223.481927 C52.303565,227.457832 48.3575289,237 48.3575289,237 L44.4114928,234.216869 L43.622288,229.445785 C43.622288,229.445785 26.2597103,209.566242 21.9190541,204.795158 C17.5783979,200.024074 16,173.783131 16,173.783131 L29.4165238,171 Z" id="Path" fill="#FBBEBE" fill-rule="nonzero"></path>
                <path d="M15.5089528,339.697214 C15.5089528,339.697214 16.276214,348.700207 15.8925834,351.048814 C15.5089528,353.397421 4,350.657381 4,350.657381 C5.9181588,346.743034 7.06905638,335 7.06905638,335 L15.5089528,339.697214 Z" id="Path" fill="#FBBEBE" fill-rule="nonzero"></path>
                <path d="M74.2230219,343.174288 C74.2230219,343.174288 75.2805784,355.700178 74.9280561,358.048806 C74.5755337,360.397434 64,357.657367 64,357.657367 C65.7625907,353.743029 66.820142,342 66.820142,342 L74.2230219,343.174288 Z" id="Path" fill="#FBBEBE" fill-rule="nonzero"></path>
                <circle id="Oval" fill="#FBBEBE" fill-rule="nonzero" cx="51.5" cy="129.5" r="14.5"></circle>
                <path d="M54.7539701,143.575002 C52.3470468,146.708333 53.5505114,152.191669 53.5505114,152.191669 C53.5505114,152.191669 29.0801008,180 24.667449,180 C20.2547972,180 21.0570429,160.416665 21.0570429,160.416665 C21.0570429,160.416665 27.4755072,152.975 31.0859193,151.408332 C34.6963314,149.841664 41.1147657,133 41.1147657,133 C41.1147657,133 57.1608935,140.441665 54.7539701,143.575002 Z" id="Path" fill="#FBBEBE" fill-rule="nonzero"></path>
                <path d="M69.2840393,194 L84.1961719,219.590886 C86.9177617,224.165332 81.8555828,247.319469 81.8555828,247.319469 L79.5698471,296.746989 L75.7602914,346.551323 L75.7602914,352 L63.1887422,351.610808 L58.9982258,298.303739 L52.9029287,258.216853 L42.9980702,288.963107 L26.6169653,326.714835 C25.2182844,331.371402 23.4994535,335.921242 21.4732996,340.330401 L18.4256539,345.779107 L7,344.414606 L24.3312125,284.681988 L27.759836,245.762678 C28.1408196,223.967864 34.9980267,211.902881 34.9980267,211.902881 L34.9980267,207.232565 L69.2840393,194 Z" id="Path" fill="#2F2E41" fill-rule="nonzero"></path>
                <path d="M16.6937404,349.213928 C16.6937404,349.213928 18.7013206,346.091945 18.7013206,347.262687 C18.7013206,348.433428 23.9210255,351.555417 23.9210255,351.555417 C23.9210255,351.555417 29.1407365,350.774923 29.9437662,356.628642 C30.7467959,362.482361 22.716481,363.653114 20.7089008,363.262861 C18.7013206,362.872608 13.4816156,363.653114 13.4816156,363.653114 C13.4816156,363.653114 9.46645517,364.433608 3.04219968,363.653114 C-3.38205582,362.872619 2.23917,352.335917 3.04219968,350.384676 C3.84522936,348.433434 7.8603898,349.994423 7.8603898,349.994423 C15.087681,351.945664 16.6937404,349.213928 16.6937404,349.213928 Z" id="Path" fill="#2F2E41" fill-rule="nonzero"></path>
                <path d="M75.6937399,355.21393 C75.6937399,355.21393 77.7013201,352.091941 77.7013201,353.262689 C77.7013201,354.433436 82.9210249,357.555419 82.9210249,357.555419 C82.9210249,357.555419 88.1407297,356.774919 88.9437654,362.628644 C89.7468011,368.482369 81.7164804,369.653123 79.7089003,369.262864 C77.7013201,368.872605 72.4816153,369.653111 72.4816153,369.653111 C72.4816153,369.653111 68.4664549,370.433611 62.0421996,369.653111 C55.6179443,368.872611 61.2391699,358.335914 62.0421996,356.384672 C62.8452293,354.43343 66.8603896,355.994425 66.8603896,355.994425 C74.0876926,357.945667 75.6937399,355.21393 75.6937399,355.21393 Z" id="Path" fill="#2F2E41" fill-rule="nonzero"></path>
                <path d="M48.2777978,150.418226 C58.000016,140.176325 68.5000157,165.781084 68.5000157,165.781084 C68.5000157,165.781084 72,175.235155 69.2777912,180.356105 C66.5555475,185.477056 72,196.900724 72,196.900724 C58.6822343,208.384647 45.4108987,219.001648 33.1111504,211.475733 C34.6666783,202.021669 29.6111311,197.294637 26.1111118,188.23449 C22.6110925,179.174344 16,181.143942 16,181.143942 C16,181.143942 16.3888878,170.902041 17.555557,162.629731 C18.7222262,154.357422 29.2222433,151.251235 29.2222433,151.251235 C31.1258099,154.715114 38.5555738,160.660133 48.2777978,150.418226 Z" id="Path" fill="#172B4D" fill-rule="nonzero"></path>
                <path d="M64.4165238,166 L67.9679752,191.445782 L82.9629265,218.481927 C87.303565,222.457832 83.3575289,232 83.3575289,232 L79.4114928,229.216869 L78.622288,224.445785 C78.622288,224.445785 61.2597103,204.566242 56.9190541,199.795158 C52.5783979,195.024074 51,168.783131 51,168.783131 L64.4165238,166 Z" id="Path" fill="#FBBEBE" fill-rule="nonzero"></path>
                <path d="M67,171.192031 L51.2656071,173 C51.2656071,173 50.1417251,155.281934 52.5176778,150.856989 C54.8936305,146.432045 63.6283428,151.30441 63.6283428,151.30441 C65.8760899,151.665975 67,171.192031 67,171.192031 Z" id="Path" fill="#172B4D" fill-rule="nonzero"></path>
                <path d="M68.9777029,122.115649 C58.7606158,127.227874 64.6553281,141.186407 63.4494388,147.043333 C61.4743434,156.636484 32.3478487,151.761324 32.3478487,151.761324 C28.8041599,151.123184 26.6444833,111.653304 46.0514089,112.002301 C55.8337531,112.178212 77.729407,117.73663 68.9777029,122.115649 Z" id="Path" fill="#2F2E41" fill-rule="nonzero"></path>
                <ellipse id="Oval" fill="#FBBEBE" fill-rule="nonzero" cx="61" cy="132.5" rx="2" ry="2.5"></ellipse>
                <g id="Green-Field" transform="translate(174.000000, 85.000000)">
                    <rect id="Rectangle" fill="#B6F6DA" x="0" y="0" width="45" height="18" rx="2"></rect>
                    <path d="M20.3083128,12.7592984 L16.9910683,9.54566843 C16.7443581,9.30666425 16.7381112,8.91291495 16.9771153,8.66620475 C16.9813064,8.66187861 16.98556,8.65761358 16.9898749,8.65341101 C17.2451335,8.4047983 17.6519869,8.4047983 17.9072456,8.65341101 L20.751,11.4225 L27.0922456,5.24716471 C27.3475042,4.99855199 27.7543577,4.99855199 28.0096163,5.24716471 C28.2563456,5.48747023 28.2615532,5.88229001 28.0212477,6.12901937 L28.0096163,6.14065075 L28.0096163,6.14065075 L21.2210733,12.7524475 C21.093444,12.8767538 20.927916,12.938907 20.762388,12.938907 C20.5972208,12.9410561 20.4341052,12.8811616 20.3083128,12.7592984 Z" id="Combined-Shape" fill="#212121"></path>
                </g>
                <g id="Green-Field" transform="translate(174.000000, 106.000000)">
                    <rect id="Rectangle" fill="#B6F6DA" x="0" y="0" width="45" height="18" rx="2"></rect>
                    <path d="M20.3083128,12.7592984 L16.9910683,9.54566843 C16.7443581,9.30666425 16.7381112,8.91291495 16.9771153,8.66620475 C16.9813064,8.66187861 16.98556,8.65761358 16.9898749,8.65341101 C17.2451335,8.4047983 17.6519869,8.4047983 17.9072456,8.65341101 L20.751,11.4225 L27.0922456,5.24716471 C27.3475042,4.99855199 27.7543577,4.99855199 28.0096163,5.24716471 C28.2563456,5.48747023 28.2615532,5.88229001 28.0212477,6.12901937 L28.0096163,6.14065075 L28.0096163,6.14065075 L21.2210733,12.7524475 C21.093444,12.8767538 20.927916,12.938907 20.762388,12.938907 C20.5972208,12.9410561 20.4341052,12.8811616 20.3083128,12.7592984 Z" id="Combined-Shape" fill="#212121"></path>
                </g>
                <g id="yellow-Field" transform="translate(174.000000, 125.000000)">
                    <rect id="Rectangle" fill="#FEE8AA" fill-rule="evenodd" x="0" y="0" width="45" height="19" rx="2"></rect>
                    <ellipse id="Oval" stroke="#212121" stroke-width="1" cx="22.8" cy="9.203125" rx="4.9" ry="5.140625"></ellipse>
                </g>
                <g id="Green-Field" transform="translate(221.000000, 125.000000)">
                    <rect id="Rectangle" fill="#B6F6DA" x="0" y="0" width="45" height="19" rx="2"></rect>
                    <path d="M20.3269401,13.4863724 L20.3078046,13.4676286 L20.3078046,13.4676286 L16.9911349,10.0760514 C16.7352747,9.81441254 16.7347156,9.3964785 16.9898749,9.13415607 C17.2362824,8.88083116 17.6413955,8.87522347 17.8947204,9.12163095 L17.9072456,9.13415607 L17.9072456,9.13415607 L20.751,12.05775 L27.0922456,5.53867386 C27.3386531,5.28534894 27.7437662,5.27974125 27.9970911,5.52614873 L28.0096163,5.53867386 L28.0096163,5.53867386 C28.2649693,5.80119549 28.2649693,6.21927637 28.0096163,6.48179801 L21.2210733,13.4609168 C21.0998811,13.5855113 20.9402974,13.6501821 20.7792639,13.654418 C20.6183624,13.6613738 20.4542075,13.6057814 20.3269401,13.4863724 Z" id="Combined-Shape" fill="#212121"></path>
                </g>
                <g id="yellow-Field" transform="translate(221.000000, 147.000000)">
                    <rect id="Rectangle" fill="#FEE8AA" fill-rule="evenodd" x="0" y="0" width="45" height="17" rx="2"></rect>
                    <ellipse id="Oval" stroke="#212121" stroke-width="1" cx="22.8" cy="8.234375" rx="4.9" ry="4.546875"></ellipse>
                </g>
                <g id="Green-Field" transform="translate(128.000000, 106.000000)">
                    <rect id="Rectangle" fill="#B6F6DA" x="0" y="0" width="44" height="18" rx="2"></rect>
                    <path d="M27.3871804,5.24716471 C27.6339097,5.49293172 27.6346898,5.89217891 27.3889228,6.13890827 L27.3871804,6.14065075 L20.7494939,12.7524475 C20.6421218,12.8594008 20.506056,12.9200444 20.3661447,12.9343784 C20.3552295,12.9350032 20.3438462,12.9360634 20.3324452,12.9368093 C20.3150587,12.9377792 20.2979866,12.9379264 20.2809319,12.9373909 C20.2566694,12.9376271 20.2321119,12.9357517 20.2077107,12.9324174 C20.2049153,12.9304495 20.2018982,12.9299831 20.198884,12.929495 C20.076008,12.912506 19.9577656,12.8569119 19.8618616,12.7640415 C19.8601685,12.7624018 19.8584847,12.7607526 19.8568104,12.7590937 L16.6135161,9.54569522 C16.3667911,9.30124445 16.3649474,8.9030678 16.6093982,8.65634279 C16.6103696,8.65536232 16.6113443,8.65438506 16.6123221,8.65341101 C16.8603006,8.40639975 17.2613283,8.40639975 17.5093068,8.65341101 L20.2896667,11.4225 L26.4901957,5.24716471 C26.7381742,5.00015344 27.1392019,5.00015344 27.3871804,5.24716471 Z" id="Combined-Shape" fill="#212121"></path>
                </g>
                <g id="Green-Field" transform="translate(128.000000, 125.000000)">
                    <rect id="Rectangle" fill="#B6F6DA" x="0" y="0" width="44" height="19" rx="2"></rect>
                    <path d="M27.3652392,5.51673272 L27.3871804,5.53867386 L27.3871804,5.53867386 C27.6384308,5.80284828 27.6384308,6.21762358 27.3871804,6.48179801 L20.7494939,13.4609168 C20.6323283,13.5841092 20.4765266,13.6484613 20.3190297,13.6530467 C20.1647564,13.6599951 20.0075151,13.6078762 19.8844855,13.4950086 L19.8563139,13.467413 L19.8563139,13.467413 L16.6135811,10.0760796 C16.3618113,9.81277226 16.3612571,9.39813553 16.6123221,9.13415607 C16.8478998,8.8864606 17.2396702,8.87663722 17.4873656,9.11221494 L17.5093068,9.13415607 L17.5093068,9.13415607 L20.2896667,12.05775 L26.4901957,5.53867386 C26.7257734,5.29097839 27.1175438,5.28115501 27.3652392,5.51673272 Z" id="Combined-Shape" fill="#212121"></path>
                </g>
                <g id="yellow-Field" transform="translate(128.000000, 147.000000)">
                    <rect id="Rectangle" fill="#FEE8AA" fill-rule="evenodd" x="0" y="0" width="44" height="17" rx="2"></rect>
                    <ellipse id="Oval" stroke="#212121" stroke-width="1" cx="22.2933333" cy="8.234375" rx="4.78" ry="4.546875"></ellipse>
                </g>
                <g id="Green-Field" transform="translate(128.000000, 167.000000)">
                    <rect id="Rectangle" fill="#B6F6DA" x="0" y="0" width="44" height="19" rx="2"></rect>
                    <path d="M27.3652392,5.51673272 L27.3871804,5.53867386 L27.3871804,5.53867386 C27.6384308,5.80284828 27.6384308,6.21762358 27.3871804,6.48179801 L20.7494939,13.4609168 C20.6323283,13.5841092 20.4765266,13.6484613 20.3190297,13.6530467 C20.1647564,13.6599951 20.0075151,13.6078762 19.8844855,13.4950086 L19.8563139,13.467413 L19.8563139,13.467413 L16.6135811,10.0760796 C16.3618113,9.81277226 16.3612571,9.39813553 16.6123221,9.13415607 C16.8478998,8.8864606 17.2396702,8.87663722 17.4873656,9.11221494 L17.5093068,9.13415607 L17.5093068,9.13415607 L20.2896667,12.05775 L26.4901957,5.53867386 C26.7257734,5.29097839 27.1175438,5.28115501 27.3652392,5.51673272 Z" id="Combined-Shape" fill="#212121"></path>
                </g>
                <g id="Green-Field" transform="translate(174.000000, 147.000000)">
                    <rect id="Rectangle" fill="#B6F6DA" x="0" y="0" width="45" height="17" rx="2"></rect>
                    <path d="M28.0096163,4.95565556 C28.2426384,5.17000215 28.257778,5.53266619 28.0434314,5.76568836 L28.0096163,5.79950348 L28.0096163,5.79950348 L21.2210733,12.0439782 C21.1058359,12.1499799 20.9630393,12.2088698 20.8171807,12.2206478 C20.6349252,12.2371526 20.4506973,12.1807224 20.3088487,12.0509388 L16.9909982,9.01528939 C16.7580296,8.80213601 16.7419662,8.44048268 16.9551196,8.20751407 C16.9661991,8.19540455 16.977795,8.18377774 16.9898749,8.17266596 C17.2491593,7.93416196 17.6479612,7.93416196 17.9072456,8.17266596 L20.75,10.78725 L27.0922456,4.95565556 C27.35153,4.71715156 27.7503319,4.71715156 28.0096163,4.95565556 Z" id="Combined-Shape" fill="#212121"></path>
                </g>
                <g id="yellow-Field" transform="translate(174.000000, 167.000000)">
                    <rect id="Rectangle" fill="#FEE8AA" fill-rule="evenodd" x="0" y="0" width="45" height="19" rx="2"></rect>
                    <ellipse id="Oval" stroke="#212121" stroke-width="1" cx="22.8" cy="9.203125" rx="4.9" ry="5.140625"></ellipse>
                </g>
                <g id="red-Field" transform="translate(221.000000, 106.000000)">
                    <rect id="Rectangle" fill="#FDBCD0" x="0" y="0" width="45" height="18" rx="2"></rect>
                    <path d="M19.0751889,4.6621347 L22.8,7.935 L26.5248111,4.6621347 C26.7795184,4.43827079 27.1608194,4.43827079 27.4155267,4.6621347 C27.6317063,4.8521363 27.6529278,5.18141122 27.4629262,5.39759083 C27.44816,5.4143915 27.4323274,5.43022407 27.4155267,5.44499028 L23.69,8.718 L27.4155267,11.9925097 C27.6317063,12.1825113 27.6529278,12.5117862 27.4629262,12.7279658 C27.44816,12.7447665 27.4323274,12.7605991 27.4155267,12.7753653 C27.1608194,12.9992292 26.7795184,12.9992292 26.5248111,12.7753653 L22.8,9.501 L19.0751889,12.7753653 C18.8204816,12.9992292 18.4391806,12.9992292 18.1844733,12.7753653 C17.9682937,12.5853637 17.9470722,12.2560888 18.1370738,12.0399092 C18.15184,12.0231085 18.1676726,12.0072759 18.1844733,11.9925097 L21.909,8.718 L18.1844733,5.44499028 C17.9682937,5.25498868 17.9470722,4.92571376 18.1370738,4.70953416 C18.15184,4.69273348 18.1676726,4.67690092 18.1844733,4.6621347 C18.4391806,4.43827079 18.8204816,4.43827079 19.0751889,4.6621347 Z" id="Combined-Shape" fill="#212121"></path>
                </g>
                <polygon id="Path" fill="#0052CC" fill-rule="nonzero" points="296 196.659436 278 186 283.256676 206 286.42532 198.713499 291.710273 205.679547 293.277684 204.53071 287.992731 197.564663"></polygon>
                <rect id="Rectangle" fill="#3F3D56" fill-rule="nonzero" x="176" y="128" width="24" height="7"></rect>
                <polygon id="Path" fill="#3F3D56" fill-rule="nonzero" points="198 116.994577 212 109 207.911474 124 205.446974 118.535125 201.336455 123.75966 200.117357 122.898033 204.227876 117.673497"></polygon>
                <rect id="Rectangle" fill="#0052CC" fill-rule="nonzero" x="290" y="211" width="33" height="11"></rect>
            </g>
        </g>
    </g>
</svg>